<?xml version="1.0" encoding="utf-8"?>
<svg version="1.1" baseProfile="tiny" id="Layer_1" xmlns="http://www.w3.org/2000/svg" xmlns:xlink="http://www.w3.org/1999/xlink"
	 x="0px" y="0px" viewBox="0 0 97.6 45.4" overflow="visible" xml:space="preserve">
<g id="code_x5F_html5">
	<linearGradient id="SVGID_1_" gradientUnits="userSpaceOnUse" x1="0" y1="22.6857" x2="40.0896" y2="22.6857">
		<stop  offset="0" style="stop-color:#76C374"/>
		<stop  offset="1" style="stop-color:#B6D433"/>
	</linearGradient>
	<polygon fill="url(#SVGID_1_)" points="40.1,0 20,0 20,0 0,0 3.8,40.8 20,45.4 20,45.4 20,45.4 20,45.4 20,45.4 36.3,40.8 	"/>
	
		<linearGradient id="SVGID_00000111882062788649990840000013793938322697166770_" gradientUnits="userSpaceOnUse" x1="20.0448" y1="22.62" x2="36.4468" y2="22.62">
		<stop  offset="0" style="stop-color:#C0DE9D"/>
		<stop  offset="1" style="stop-color:#CFE07B"/>
	</linearGradient>
	<polygon fill="url(#SVGID_00000111882062788649990840000013793938322697166770_)" points="20,3.3 20,41.9 20,41.9 33.2,38.2 
		36.4,3.3 	"/>
	<g>
		<path fill="#EBEBEB" d="M12.8,21.9c0.5,0,0.9,0.1,1.3,0.3c0.4,0.2,0.8,0.4,1.1,0.7c0.3,0.3,0.5,0.7,0.7,1.1
			c0.2,0.4,0.3,0.9,0.3,1.3c0,0.5-0.1,0.9-0.3,1.3c-0.2,0.4-0.4,0.8-0.7,1.1c-0.3,0.3-0.7,0.5-1.1,0.7c-0.4,0.2-0.8,0.3-1.3,0.3
			c-0.5,0-0.9-0.1-1.3-0.3c-0.4-0.2-0.8-0.4-1.1-0.7c-0.3-0.3-0.5-0.7-0.7-1.1c-0.2-0.4-0.3-0.8-0.3-1.3c0-0.5,0.1-0.9,0.3-1.3
			c0.2-0.4,0.4-0.8,0.7-1.1c0.3-0.3,0.7-0.6,1.1-0.7C11.9,22,12.3,21.9,12.8,21.9z"/>
	</g>
	<g>
		<path fill="#FFFFFF" d="M23.4,21.8L22,19.6l3.7-1.9l-3.7-1.9l1.3-2.2l3.3,2.4l-0.2-4.2h2.6l-0.2,4.2l3.3-2.3l1.3,2.2l-3.6,1.9
			l3.5,1.8l-1.2,2.2l-3.3-2.3l0.3,4l-2.5,1l0.3-5L23.4,21.8z"/>
	</g>
	<g>
		<path fill="#2B2B2B" d="M44.4,27.2l1.1-0.1v-6.6l-1.1-0.3v-1.1l2.6-0.3H47l0.4,0.3v0.4l-0.1,1.3h0.1c0.1-0.2,0.3-0.5,0.5-0.8
			c0.3-0.3,0.7-0.6,1.1-0.9c0.4-0.2,0.9-0.4,1.4-0.4c0.2,0,0.5,0,0.6,0.1v2.5c-0.3-0.2-0.7-0.3-1.2-0.3c-0.8,0-1.5,0.2-2.1,0.6V27
			l1.9,0.1v1h-5.4V27.2z"/>
		<path fill="#2B2B2B" d="M52.9,27.1c-0.7-0.9-1.1-2-1.1-3.5c0-1,0.2-1.9,0.6-2.6c0.4-0.7,0.9-1.3,1.6-1.7c0.7-0.4,1.5-0.6,2.3-0.6
			c1.1,0,2,0.3,2.6,0.9c0.6,0.6,0.9,1.4,0.9,2.5c0,0.7,0,1.3-0.1,1.6h-5.4c0,1,0.3,1.8,0.7,2.4c0.4,0.6,1,0.8,1.8,0.8
			c0.4,0,0.9-0.1,1.3-0.2c0.5-0.1,0.8-0.3,1.1-0.5l0.4,0.9c-0.3,0.3-0.8,0.6-1.5,0.9c-0.7,0.3-1.3,0.4-2,0.4
			C54.7,28.4,53.6,27.9,52.9,27.1z M57.4,22.7c0-0.3,0-0.5,0-0.7c0-1.5-0.5-2.2-1.5-2.2c-0.5,0-1,0.2-1.3,0.6
			c-0.3,0.4-0.5,1.2-0.5,2.3H57.4z"/>
		<path fill="#2B2B2B" d="M61.6,32c-0.7-0.5-1-1.1-1-1.9c0-0.5,0.2-0.9,0.5-1.3c0.3-0.4,0.7-0.7,1.1-0.9c-0.5-0.3-0.8-0.8-0.8-1.4
			c0-0.4,0.1-0.7,0.4-1.1c0.2-0.3,0.6-0.6,0.9-0.8c-0.6-0.2-1.1-0.6-1.4-1.1c-0.3-0.5-0.4-1-0.4-1.7c0-0.6,0.2-1.2,0.6-1.7
			c0.4-0.5,0.9-0.8,1.5-1.1c0.6-0.3,1.3-0.4,2-0.4c1.3,0,2.3,0.2,2.9,0.7c0.1-0.2,0.4-0.4,0.7-0.5c0.3-0.2,0.7-0.2,1.1-0.2h0.6v1.8
			h-1.7c0.2,0.4,0.2,0.7,0.2,1.1c0,1-0.3,1.8-1.1,2.4c-0.7,0.6-1.7,0.9-3,0.9c-0.5,0-1,0-1.3-0.1c-0.1,0.1-0.2,0.3-0.3,0.5
			c-0.1,0.2-0.1,0.3-0.1,0.4c0,0.4,0.1,0.6,0.4,0.7c0.3,0.1,0.7,0.2,1.4,0.2h1.8c2.3,0,3.4,0.8,3.4,2.5c0,0.7-0.2,1.3-0.7,1.8
			c-0.5,0.5-1.1,1-1.9,1.3c-0.8,0.3-1.7,0.4-2.6,0.4C63.4,32.7,62.3,32.4,61.6,32z M66.9,31c0.5-0.3,0.8-0.8,0.8-1.4
			c0-0.5-0.1-0.8-0.4-1c-0.2-0.2-0.7-0.3-1.3-0.3h-1.8c-0.3,0-0.5,0-0.8-0.1c-0.3,0.4-0.4,0.9-0.4,1.4c0,0.6,0.2,1.1,0.5,1.4
			c0.3,0.3,0.9,0.5,1.7,0.5C65.8,31.5,66.4,31.3,66.9,31z M66.5,21.8c0-0.7-0.1-1.2-0.4-1.6c-0.3-0.3-0.7-0.5-1.2-0.5
			c-0.5,0-0.9,0.2-1.2,0.5c-0.3,0.3-0.4,0.8-0.4,1.5c0,1.5,0.6,2.2,1.7,2.2C66,23.9,66.5,23.2,66.5,21.8z"/>
		<path fill="#2B2B2B" d="M71.9,27.1c-0.7-0.9-1.1-2-1.1-3.5c0-1,0.2-1.9,0.6-2.6c0.4-0.7,0.9-1.3,1.6-1.7c0.7-0.4,1.5-0.6,2.3-0.6
			c1.1,0,2,0.3,2.6,0.9c0.6,0.6,0.9,1.4,0.9,2.5c0,0.7,0,1.3-0.1,1.6h-5.4c0,1,0.3,1.8,0.7,2.4c0.4,0.6,1,0.8,1.8,0.8
			c0.4,0,0.9-0.1,1.3-0.2c0.5-0.1,0.8-0.3,1.1-0.5l0.4,0.9c-0.3,0.3-0.8,0.6-1.5,0.9c-0.7,0.3-1.3,0.4-2,0.4
			C73.7,28.4,72.6,27.9,71.9,27.1z M76.4,22.7c0-0.3,0-0.5,0-0.7c0-1.5-0.5-2.2-1.5-2.2c-0.5,0-1,0.2-1.3,0.6
			c-0.3,0.4-0.5,1.2-0.5,2.3H76.4z"/>
		<path fill="#2B2B2B" d="M82.9,23.6l-2.7-3.5l-0.9-0.2v-1h4.8v1L83,20.1l1.3,1.8l0.4,0.7l0.4-0.7l1.3-1.8l-1.1-0.2v-1H89v1L88,20.1
			l-2.6,3.2l2.9,3.7l0.9,0.1v1h-4.8v-1l1-0.2l-1.3-1.9l-0.5-0.7l-0.4,0.7l-1.4,2l1.3,0.2v1h-4v-1l1.1-0.2L82.9,23.6z"/>
		<path fill="#2B2B2B" d="M90.9,16.8c-0.5-0.4-0.9-0.7-1.4-1.1c-0.4-0.4-0.7-0.8-0.9-1l1.4-1.3l2.9,3.5L92,17.5h0
			C91.7,17.4,91.3,17.2,90.9,16.8z"/>
		<path fill="#2B2B2B" d="M95.6,16.8c-0.5-0.4-0.9-0.7-1.4-1.1c-0.4-0.4-0.7-0.8-0.9-1l1.4-1.3l2.9,3.5l-0.9,0.7h0
			C96.4,17.4,96,17.2,95.6,16.8z"/>
	</g>
</g>
</svg>
