<?xml version="1.0" encoding="UTF-8"?><svg id="Layer_1" xmlns="http://www.w3.org/2000/svg" xmlns:xlink="http://www.w3.org/1999/xlink" viewBox="0 0 97.59 45.37"><defs><style>.cls-1{fill:url(#linear-gradient);}.cls-1,.cls-2,.cls-3,.cls-4,.cls-5{stroke-width:0px;}.cls-2{fill:#fff;}.cls-3{fill:url(#linear-gradient-2);}.cls-4{fill:#ebebeb;}.cls-5{fill:#3a3a3a;}</style><linearGradient id="linear-gradient" x1="0" y1="22.69" x2="40.09" y2="22.69" gradientUnits="userSpaceOnUse"><stop offset="0" stop-color="#76c374"/><stop offset="1" stop-color="#b6d433"/></linearGradient><linearGradient id="linear-gradient-2" x1="20.04" y1="22.62" x2="36.45" y2="22.62" gradientUnits="userSpaceOnUse"><stop offset="0" stop-color="#c0de9d"/><stop offset="1" stop-color="#cfe07b"/></linearGradient></defs><g id="code_html5"><polygon class="cls-1" points="40.09 0 20.04 0 20.04 0 0 0 3.76 40.75 20.04 45.37 20.04 45.37 20.04 45.37 20.04 45.37 20.04 45.37 36.33 40.75 40.09 0"/><polygon class="cls-3" points="20.04 3.32 20.04 41.92 20.04 41.92 33.23 38.18 36.45 3.32 20.04 3.32"/><path class="cls-4" d="M12.79,21.94c.46,0,.89.09,1.3.26.41.18.77.42,1.07.73.3.31.54.67.72,1.08.18.41.26.85.26,1.33s-.09.89-.26,1.29c-.18.4-.41.76-.72,1.06s-.66.54-1.07.72c-.41.18-.85.26-1.3.26s-.91-.09-1.32-.26c-.4-.18-.76-.41-1.06-.72-.3-.3-.54-.66-.72-1.06-.18-.4-.26-.84-.26-1.29s.09-.91.26-1.33c.18-.41.41-.77.72-1.08.3-.31.66-.55,1.06-.73.4-.18.84-.26,1.32-.26Z"/><path class="cls-2" d="M23.42,21.83l-1.37-2.19,3.72-1.93-3.66-1.92,1.31-2.2,3.34,2.39-.22-4.22h2.57l-.22,4.15,3.27-2.33,1.28,2.2-3.58,1.95,3.51,1.84-1.21,2.22-3.3-2.35.26,3.99-2.54,1.04.26-4.96-3.4,2.31Z"/><path class="cls-5" d="M44.37,27.19l1.1-.13v-6.55l-1.06-.3v-1.15l2.58-.35h.05l.42.33v.37l-.05,1.35h.05c.08-.22.26-.5.55-.82.29-.33.65-.62,1.09-.86s.91-.37,1.42-.37c.24,0,.45.03.63.1v2.49c-.33-.23-.74-.35-1.21-.35-.81,0-1.51.22-2.11.65v5.45l1.93.15v.98h-5.37v-.98Z"/><path class="cls-5" d="M52.87,27.07c-.71-.86-1.07-2.03-1.07-3.52,0-1,.19-1.86.56-2.59.37-.73.9-1.29,1.57-1.68.68-.39,1.46-.58,2.34-.58,1.11,0,1.96.29,2.56.87.6.58.91,1.41.93,2.49,0,.73-.04,1.27-.13,1.63h-5.4c.04,1.01.28,1.79.71,2.35.43.56,1.05.84,1.85.84.43,0,.88-.07,1.34-.22s.82-.32,1.09-.52l.42.91c-.3.32-.78.62-1.45.89-.67.27-1.35.41-2.04.41-1.46,0-2.55-.43-3.27-1.29ZM57.44,22.69c.02-.31.03-.55.03-.71,0-1.47-.49-2.21-1.48-2.21-.54,0-.96.22-1.26.65-.3.43-.47,1.19-.5,2.28h3.21Z"/><path class="cls-5" d="M61.64,31.97c-.67-.47-1-1.1-1-1.9,0-.45.15-.88.46-1.29s.67-.71,1.11-.91c-.51-.3-.76-.78-.76-1.43,0-.38.12-.73.37-1.07s.56-.6.95-.79c-.61-.23-1.06-.59-1.36-1.06-.3-.48-.45-1.04-.45-1.7s.19-1.18.56-1.65c.37-.47.87-.83,1.5-1.09.63-.25,1.31-.38,2.04-.38,1.3,0,2.26.25,2.89.75.14-.19.39-.37.73-.53s.7-.25,1.06-.25h.58v1.81h-1.71c.17.35.25.73.25,1.13.01,1.01-.34,1.82-1.06,2.42s-1.71.91-2.96.91c-.52,0-.96-.04-1.31-.12-.11.14-.2.3-.26.46-.06.16-.09.3-.09.42,0,.37.13.62.39.75.26.13.73.2,1.4.2h1.78c2.26,0,3.39.82,3.39,2.46,0,.69-.24,1.3-.73,1.85-.49.54-1.14.96-1.95,1.26-.81.3-1.67.45-2.58.45-1.49,0-2.56-.23-3.23-.7ZM66.93,31.01c.51-.34.76-.81.76-1.41,0-.48-.12-.82-.37-1.03s-.7-.32-1.34-.32h-1.81c-.28,0-.53-.02-.76-.05-.3.4-.45.88-.45,1.43,0,.61.17,1.07.5,1.4.33.32.89.48,1.66.48.7,0,1.3-.17,1.81-.51ZM66.53,21.79c0-.72-.13-1.25-.39-1.59-.26-.34-.66-.51-1.19-.51s-.92.17-1.21.51c-.28.34-.42.84-.42,1.52,0,1.45.55,2.18,1.66,2.18,1.03,0,1.55-.7,1.55-2.11Z"/><path class="cls-5" d="M71.86,27.07c-.71-.86-1.07-2.03-1.07-3.52,0-1,.19-1.86.56-2.59.37-.73.9-1.29,1.57-1.68.68-.39,1.46-.58,2.34-.58,1.11,0,1.96.29,2.56.87.6.58.91,1.41.93,2.49,0,.73-.04,1.27-.13,1.63h-5.4c.04,1.01.28,1.79.71,2.35.43.56,1.05.84,1.85.84.43,0,.88-.07,1.34-.22s.82-.32,1.09-.52l.42.91c-.3.32-.78.62-1.45.89-.67.27-1.35.41-2.04.41-1.46,0-2.55-.43-3.27-1.29ZM76.42,22.69c.02-.31.03-.55.03-.71,0-1.47-.49-2.21-1.48-2.21-.54,0-.96.22-1.26.65-.3.43-.47,1.19-.5,2.28h3.21Z"/><path class="cls-5" d="M82.87,23.64l-2.74-3.54-.86-.2v-.96h4.81v.96l-1.08.2,1.31,1.85.43.7.43-.7,1.35-1.85-1.13-.2v-.96h3.61v.96l-.95.2-2.63,3.23,2.88,3.72.91.15v.98h-4.8v-.98l.98-.17-1.28-1.95-.5-.73-.4.71-1.36,1.96,1.28.17v.98h-3.99v-.98l1.06-.17,2.68-3.39Z"/><path class="cls-5" d="M90.86,16.8c-.47-.35-.93-.74-1.36-1.15s-.74-.76-.91-1.05l1.43-1.28,2.86,3.46-.88.71h-.02c-.28-.11-.65-.34-1.12-.7Z"/><path class="cls-5" d="M95.57,16.8c-.47-.35-.93-.74-1.36-1.15s-.74-.76-.91-1.05l1.43-1.28,2.86,3.46-.88.71h-.02c-.28-.11-.65-.34-1.12-.7Z"/></g></svg>