<?xml version="1.0" encoding="UTF-8"?><svg id="Layer_1" xmlns="http://www.w3.org/2000/svg" xmlns:xlink="http://www.w3.org/1999/xlink" viewBox="0 0 102.29 45.37"><defs><style>.cls-1{fill:url(#linear-gradient-2);}.cls-2{fill:#fff;}.cls-3{fill:#ebebeb;}.cls-4{fill:url(#linear-gradient);}</style><linearGradient id="linear-gradient" x1="0" y1="22.69" x2="40.09" y2="22.69" gradientUnits="userSpaceOnUse"><stop offset="0" stop-color="#76c374"/><stop offset="1" stop-color="#b6d433"/></linearGradient><linearGradient id="linear-gradient-2" x1="20.04" y1="22.62" x2="36.45" y2="22.62" gradientUnits="userSpaceOnUse"><stop offset="0" stop-color="#c0de9d"/><stop offset="1" stop-color="#cfe07b"/></linearGradient></defs><g id="code_html5"><polygon class="cls-4" points="40.09 0 20.04 0 20.04 0 0 0 3.76 40.75 20.04 45.37 20.04 45.37 20.04 45.37 20.04 45.37 20.04 45.37 36.33 40.75 40.09 0"/><polygon class="cls-1" points="20.04 3.32 20.04 41.92 20.04 41.92 33.23 38.18 36.45 3.32 20.04 3.32"/><path class="cls-3" d="M12.79,21.94c.46,0,.89.09,1.3.26.41.18.77.42,1.07.73.3.31.54.67.72,1.08.18.41.26.85.26,1.33s-.09.89-.26,1.29c-.18.4-.41.76-.72,1.06s-.66.54-1.07.72c-.41.18-.85.26-1.3.26s-.91-.09-1.32-.26c-.4-.18-.76-.41-1.06-.72-.3-.3-.54-.66-.72-1.06-.18-.4-.26-.84-.26-1.29s.09-.91.26-1.33c.18-.41.41-.77.72-1.08.3-.31.66-.55,1.06-.73.4-.18.84-.26,1.32-.26Z"/><path class="cls-2" d="M23.42,21.83l-1.37-2.19,3.72-1.93-3.66-1.92,1.31-2.2,3.34,2.39-.22-4.22h2.57l-.22,4.15,3.27-2.33,1.28,2.2-3.58,1.95,3.51,1.84-1.21,2.22-3.3-2.35.26,3.99-2.54,1.04.26-4.96-3.4,2.31Z"/><path class="cls-3" d="M43.65,27.19l1.3-.16v-9.83l-1.23-.23v-1h2.38c.21,0,.44,0,.69-.02.25-.01.44-.02.58-.03.57-.04,1.04-.07,1.41-.07,1.13,0,2.03.11,2.71.35.68.23,1.17.58,1.48,1.05s.46,1.09.46,1.86-.2,1.46-.61,2.1c-.41.65-.99,1.09-1.76,1.33.44.19.83.53,1.17,1.02.34.49.7,1.13,1.08,1.92.27.54.48.92.63,1.16s.29.37.44.4l.54.16v.97h-2.79c-.18,0-.36-.18-.55-.53-.19-.36-.44-.92-.75-1.68-.36-.9-.67-1.6-.94-2.1-.26-.5-.54-.82-.84-.94h-1.69v4.11l1.51.16v.99h-5.23v-.99ZM50.34,21.24c.35-.45.53-1.12.53-2.02,0-.8-.17-1.39-.52-1.77-.35-.38-.94-.58-1.78-.58-.31,0-.57.01-.78.04-.21.03-.35.04-.42.04v4.93c.13.02.45.03.95.03h.56c.62,0,1.11-.22,1.46-.67Z"/><path class="cls-3" d="M56.51,27.08c-.71-.85-1.06-2.01-1.06-3.48,0-.99.18-1.84.55-2.56.37-.72.88-1.28,1.55-1.66.67-.38,1.44-.58,2.32-.58,1.1,0,1.94.29,2.53.86s.9,1.39.92,2.46c0,.72-.04,1.26-.13,1.61h-5.34c.04,1,.28,1.77.71,2.33.43.55,1.04.83,1.82.83.43,0,.87-.07,1.32-.21.45-.14.81-.31,1.08-.51l.41.9c-.3.32-.78.61-1.44.88-.66.27-1.33.4-2.01.4-1.45,0-2.52-.42-3.23-1.27ZM61.02,22.75c.02-.31.03-.54.03-.71,0-1.46-.49-2.19-1.46-2.19-.54,0-.95.21-1.25.64s-.46,1.18-.49,2.25h3.17Z"/><path class="cls-3" d="M65.42,31.92c-.66-.46-.99-1.08-.99-1.87,0-.45.15-.87.45-1.27.3-.4.67-.7,1.09-.9-.5-.3-.76-.77-.76-1.41,0-.37.12-.73.36-1.06.24-.33.55-.59.94-.78-.6-.23-1.05-.58-1.35-1.05-.3-.47-.44-1.03-.44-1.68s.18-1.17.55-1.64.86-.82,1.48-1.08,1.29-.38,2.01-.38c1.28,0,2.23.25,2.86.74.14-.19.38-.36.72-.53.34-.16.69-.25,1.05-.25h.58v1.79h-1.69c.16.35.25.72.25,1.12.01,1-.34,1.79-1.05,2.39-.71.6-1.69.9-2.93.9-.52,0-.95-.04-1.3-.11-.11.14-.19.29-.25.45-.06.16-.09.3-.09.42,0,.36.13.61.39.74.26.13.72.2,1.39.2h1.76c2.24,0,3.35.81,3.35,2.43,0,.68-.24,1.29-.72,1.82s-1.12.95-1.92,1.25c-.8.3-1.65.44-2.55.44-1.47,0-2.53-.23-3.19-.69ZM70.65,30.98c.5-.33.76-.8.76-1.39,0-.47-.12-.81-.37-1.02-.25-.21-.69-.31-1.32-.31h-1.79c-.27,0-.53-.02-.76-.05-.3.39-.44.87-.44,1.41,0,.6.16,1.06.49,1.38.33.32.88.48,1.64.48.69,0,1.29-.17,1.79-.5ZM70.26,21.86c0-.71-.13-1.23-.39-1.57-.26-.33-.65-.5-1.18-.5s-.91.17-1.19.5c-.28.33-.42.84-.42,1.5,0,1.44.55,2.15,1.64,2.15,1.02,0,1.53-.7,1.53-2.09Z"/><path class="cls-3" d="M75.77,27.08c-.71-.85-1.06-2.01-1.06-3.48,0-.99.18-1.84.55-2.56.37-.72.88-1.28,1.55-1.66.67-.38,1.44-.58,2.32-.58,1.1,0,1.94.29,2.53.86s.9,1.39.92,2.46c0,.72-.04,1.26-.13,1.61h-5.34c.04,1,.28,1.77.71,2.33.43.55,1.04.83,1.82.83.43,0,.87-.07,1.32-.21.45-.14.81-.31,1.08-.51l.41.9c-.3.32-.78.61-1.44.88-.66.27-1.33.4-2.01.4-1.45,0-2.52-.42-3.23-1.27ZM80.28,22.75c.02-.31.03-.54.03-.71,0-1.46-.49-2.19-1.46-2.19-.54,0-.95.21-1.25.64s-.46,1.18-.49,2.25h3.17Z"/><path class="cls-3" d="M86.91,23.69l-2.71-3.5-.85-.2v-.95h4.75v.95l-1.07.2,1.3,1.82.43.69.43-.69,1.33-1.82-1.12-.2v-.95h3.57v.95l-.94.2-2.6,3.19,2.84,3.68.9.15v.97h-4.75v-.97l.97-.16-1.27-1.92-.49-.72-.39.71-1.35,1.94,1.27.16v.97h-3.95v-.97l1.05-.16,2.65-3.35Z"/><path class="cls-3" d="M97.82,22.24l-.05-1.31v-1.81h1.53v1.81l-.07,1.31,1.27-.1h1.79v1.54h-1.79l-1.27-.05.07,1.28v1.91h-1.53v-1.91l.05-1.28-1.5.05h-1.54v-1.54h1.54l1.5.1Z"/></g></svg>